<svg xmlns="http://www.w3.org/2000/svg" width="32" height="32" class="icon" viewBox="0 0 1024 1024"><path d="M511.994 0C229.22 0 0 229.22 0 511.994s229.22 511.995 511.994 511.995 511.995-229.22 511.995-511.995S794.769 0 511.994 0zm147.442 252.088-.183-.103.172-.114v.217a307.748 307.748 0 0 1 157.41 252.879 147.362 147.362 0 0 0-63.946-19.458 245.862 245.862 0 0 0-103.01-166.338 149.845 149.845 0 0 0 10.003-53.703 116.092 116.092 0 0 0-.446-13.38zm-148.495-89.023h.344a106.558 106.558 0 1 1-.344 0zm-148.597 88.978c-.332 4.498-.561 9.042-.561 13.597a149.937 149.937 0 0 0 9.9 53.588 245.21 245.21 0 0 0-103.01 166.51 147.98 147.98 0 0 0-63.889 20.774 307.702 307.702 0 0 1 157.56-254.47zm-183.13 381.492v-.332a106.558 106.558 0 1 1 0 .332zM510.85 828.613a304.75 304.75 0 0 1-174.705-54.939 149.056 149.056 0 0 0 55.35-38.228 244.294 244.294 0 0 0 240.243-.961 150.2 150.2 0 0 0 54.675 38.686 304.143 304.143 0 0 1-175.563 55.442zm227.652-88.577h-.115a106.73 106.73 0 1 1 106.376-107.062v.343a106.718 106.718 0 0 1-106.261 106.719z"/></svg>