<svg xmlns="http://www.w3.org/2000/svg" width="128" height="128" class="icon" viewBox="0 0 1024 1024"><path d="m894.293 550.57 17.75-20.48c27.648-31.743 23.21-78.165-9.558-104.106l-21.162-16.725L890.539 384c14.336-39.595-6.486-81.237-46.422-93.525l-25.6-7.851-.682-26.965c-1.024-41.984-35.158-73.387-76.8-70.315l-26.966 2.048-10.24-24.917c-16.042-38.912-59.392-55.638-96.938-37.547l-24.235 11.605-18.432-19.456c-29.013-30.72-75.435-30.378-104.107 0l-18.432 19.456-24.234-11.605c-37.888-18.09-81.238-1.024-96.939 37.547l-10.24 24.917-26.965-2.048c-41.984-3.072-76.118 28.33-76.8 70.315l-.683 26.965-25.6 7.85c-40.277 12.63-61.099 54.273-46.763 93.867l9.216 25.259-21.162 16.725c-33.11 25.942-37.206 72.363-9.558 104.107l17.75 20.48-13.654 23.21c-21.504 36.182-8.533 80.897 28.331 100.353l23.893 12.629-4.437 26.283c-6.827 41.642 21.163 78.506 62.805 83.285l26.624 3.072 5.462 26.283c8.533 41.301 48.128 65.536 88.405 54.954l25.941-6.826 14.678 22.528c22.869 35.498 68.608 43.69 102.4 19.114L512 900.096l21.845 15.701c34.134 24.576 79.531 16.043 102.4-19.114l14.678-22.528 25.941 6.826c40.619 10.582 79.872-13.994 88.405-54.954l5.462-26.283 26.624-3.072c41.642-4.779 69.632-41.984 62.805-83.285l-4.437-26.624 23.893-12.63c37.205-19.456 49.835-64.512 28.33-100.352l-13.653-23.21zM512 873.814c-197.29 0-357.376-161.109-357.376-358.741S314.709 156.331 512 156.331 869.376 317.44 869.376 515.072 709.291 873.813 512 873.813z"/><path d="M512 193.877c-176.47 0-319.83 144.043-319.83 321.195S335.53 836.267 512 836.267s319.83-144.043 319.83-321.195S688.47 193.877 512 193.877zM369.664 345.088c24.576 19.797 45.056 38.912 62.123 58.027l-18.432 18.773c-15.36-18.773-36.182-38.57-62.464-59.392l18.773-17.408zm.683 300.715c5.12-4.438 7.85-9.899 7.85-15.702V483.328h-54.613v-25.941h80.555v163.157a1097.799 1097.799 0 0 0 38.912-36.181l7.168 29.013c-21.846 21.163-44.715 40.277-69.291 57.344l-10.581-24.917zm299.69 29.013h-230.4v-26.965h38.23V448.17h26.282v199.68h52.566V385.707H450.9V358.74h211.286v26.966h-77.824V491.86h72.704v25.259h-72.704v130.73h85.333v26.966z"/></svg>